{
	"asset":{
		"generator":"Khronos glTF Blender I/O v4.2.57",
		"version":"2.0"
	},
	"scene":0,
	"scenes":[
		{
			"name":"Scene",
			"nodes":[
				0
			]
		}
	],
	"nodes":[
		{
			"mesh":0,
			"name":"Post"
		}
	],
	"materials":[
		{
			"doubleSided":true,
			"name":"Material.003",
			"pbrMetallicRoughness":{
				"baseColorTexture":{
					"index":0
				},
				"metallicFactor":0,
				"roughnessFactor":0.5
			}
		}
	],
	"meshes":[
		{
			"name":"Cube.004",
			"primitives":[
				{
					"attributes":{
						"POSITION":0,
						"NORMAL":1,
						"TEXCOORD_0":2
					},
					"indices":3,
					"material":0
				}
			]
		}
	],
	"textures":[
		{
			"sampler":0,
			"source":0
		}
	],
	"images":[
		{
			"mimeType":"image/png",
			"name":"Cube_t",
			"uri":"Textures/Cube_t.png"
		}
	],
	"accessors":[
		{
			"bufferView":0,
			"componentType":5126,
			"count":512,
			"max":[
				1.1261545419692993,
				7.653908729553223,
				1.1261545419692993
			],
			"min":[
				-1.1261545419692993,
				-0.9738233685493469,
				-1.1261545419692993
			],
			"type":"VEC3"
		},
		{
			"bufferView":1,
			"componentType":5126,
			"count":512,
			"type":"VEC3"
		},
		{
			"bufferView":2,
			"componentType":5126,
			"count":512,
			"type":"VEC2"
		},
		{
			"bufferView":3,
			"componentType":5123,
			"count":768,
			"type":"SCALAR"
		}
	],
	"bufferViews":[
		{
			"buffer":0,
			"byteLength":6144,
			"byteOffset":0,
			"target":34962
		},
		{
			"buffer":0,
			"byteLength":6144,
			"byteOffset":6144,
			"target":34962
		},
		{
			"buffer":0,
			"byteLength":4096,
			"byteOffset":12288,
			"target":34962
		},
		{
			"buffer":0,
			"byteLength":1536,
			"byteOffset":16384,
			"target":34963
		}
	],
	"samplers":[
		{
			"magFilter":9729,
			"minFilter":9987
		}
	],
	"buffers":[
		{
			"byteLength":17920,
			"uri":"LampPost.bin"
		}
	]
}
